<svg xmlns="http://www.w3.org/2000/svg" width="225" height="76" viewBox="0 0 225 76"><path d="M104.192 25.02c-2.234-1.786-4.433-1.496-7.012.594-2.005 1.632-2.523 6.157-.299 7.945 2.238 1.777 5.684 1.337 7.683-1.021 2.013-2.354 1.85-5.738-.372-7.518zM68.55 60.402c-.189.66-.863.885-1.516.373-1.916-1.478-2.38-3.546-2.257-5.096.09-1.102.82-3.804 5.168-7.807-.104 2.883-.605 9.674-1.396 12.53zm18.597-33.228c-2.222.304-3.795 1.257-5.044 1.901 0-.12 0-.2-.01-.324.187-3.662.246-7.392.586-11.01.044-.432.084-.873.146-1.339 1.092-5.242 2.514-8.23 2.306-10.522-.084-1.102-.184-1.705-.62-2.75-.48-.959-1.184-1.534-1.936-1.997a4.652 4.652 0 0 0-.91-.56l-.019-.019h-.009c-.17-.077-.345-.152-.516-.221-2.06-.746-4.11-.158-5.478 1.55-1.234 1.541-1.662 3.368-2.082 5.223-.69 2.947-1.434 7.542-2.313 10.444-.678 2.255-2.034 5.096-3.729 6.231-1.681 1.15-3.624.651-4.362-1.802-.853-2.928-.62-6.33-.195-9.273.308-2.122 1.81-2.34 2.187-5.707.463-4.153-1.675-6.648-5.372-6.968-2.47-.227-4.53.786-5.835 3.327-1.327 2.552-1.74 5.346-1.908 8.165-.126 2.228-.095 4.776-.104 6.971a7.402 7.402 0 0 1-.257.463c-1.792 3.224-5.332 6.567-6.243 5.994-.487-.327-.323-1.375-.343-1.885-.08-3.83.505-10.818.999-15.918.288-3.036-1.47-5.472-5.386-5.457-2.525.004-4.005 1.564-5.414 3.089-2.41 2.623-4.377 5.632-6.247 7.851-.313.37-.84 1.044-1.391.867-.557-.2-.607-1.011-.62-1.505-.042-2.51.046-2.03.032-4.553-.006-.595-.12-1.906-.216-2.838C26.56 1.869 23.73.47 21.3.839c-1.56.233-2.77 1.27-3.598 2.597-1.305 2.126-1.865 3.15-3.035 5.356-.841 1.607-1.096 2.065-1.604 2.887-.425.659-.981 1.3-1.606 1.4-.797.121-.881-.67-.881-.741-.03-1.22-.096-3.846-.096-4.224 0-1.464.246-4.911-2.607-5.216-6.819-.72-7.79 6.92-7.856 10.623-.066 4.01.062 6.825.135 10.858.05 3.093.058 4.867.304 7.946.286 3.43 3.083 5.302 6.17 4.306 1.603-.504 2.665-1.672 3.34-3.165.685-1.538 2.023-5.072 2.772-6.715.886-1.94 1.754-4.265 2.654-5.882.342-.634 1.123-1.038 1.696-1.002.71.053 1.028.591 1.01 1.015-.039 1.84-.174 3.438-.283 5.25-.303 3.554.089 5.943.536 7.093.348.872 1.168 1.879 2.659 2.475 2.474.94 5.352.082 6.66-2.413 1.875-3.542 2.416-6.586 4.055-10.266.425-.908 1.106-2.45 2.484-2.635.418-.04 1.488.172 1.502 1.028.017.64-.289 7.166.299 10.062.516 2.564 2.904 5.41 7.593 5.048 1.37-.106 2.679-.727 3.891-1.607 1.55-.62 3.414-2.429 5.583-6.082.693 2.43 2.474 4.546 3.406 5.716 3.149 3.972 7.794 4.119 11.381.759 1.73-1.624 2.54-3.06 3.144-4.445a291.37 291.37 0 0 0-.315 4.672C59.852 42.57 54.258 49.64 53.7 56.917c-.516 6.54 2.975 13.074 10.357 17.404 1.734 1.005 3.462 1.667 5.21 1.612a7.596 7.596 0 0 0 3.152-.78c6.166-3.046 7.227-19.559 8.86-34.109 2.667-1.528 4.07-2.32 7.684-4.009 1.853-.888 3.926-.923 3.782-4.56-.089-3.006-1.628-5.863-5.598-5.3zm68.407-4.913c-1.744 3.637-6.267 8.693-9.127 3.373-1.812-3.384-.915-8.233.662-11.963.133-.26.217-.497.293-.679v-.002c.314-.652.62-1.26.937-1.83.077-.111.135-.236.192-.372 1.786-2.589 4.31-2.862 6.57-.785 3.16 2.889 2.101 8.86.473 12.258zm68.637 1.357c-1.387-2.135-3.518-2.25-4.823-1.68-1.859.826-4.497 2.494-5.022 2.125-.03-.004-.048-.004-.048-.004-.03-.373 0-.745 0-.993-.074-3.755.478-10.577.954-15.62.013-.14.036-.258.058-.376.246-1.852-.344-3.47-1.786-4.372-.877-.63-2.078-1.011-3.61-1.007-2.53.004-4.015 1.564-5.426 3.089-2.406 2.623-4.378 5.632-6.25 7.851-.31.37-.83 1.044-1.391.867-.54-.2-.607-1.011-.611-1.505-.038-2.51.038-2.03.024-4.553-.007-.595-.108-1.906-.212-2.838C195.755 1.87 192.939.47 190.5.84c-1.554.233-2.765 1.27-3.585 2.598-1.32 2.125-1.878 3.149-3.044 5.355-1.123 2.132-1.196 2.257-2.24 3.914-.174.273-.762 1.562-1.182 1.413-.435-.154-.652-1.19-.654-1.508-.038-1.039-.376-3.855-.416-4.276-.233-2.302-.663-6.905-3.552-7.73-.697-.305-1.566-.501-2.64-.574-3.354-.213-6.63 3.094-9.094 5.013a53.69 53.69 0 0 0-1.34 1.05c-1.507-2.354-3.691-4.21-6.563-5.24-8.6-3.018-16.317 4.085-17.451 12.282-.909 2.97-1.427 6.108-1.343 9.168-3.046 2.972-5.667 4.15-8.25 4.567-3.232.488-8.47.302-8.883-4.446-.62-6.968 2.778-10.267 3.593-11.22.43-.488 1.154-.975 1.602-.488.45.506.1 1.47-.352 2.285-.731 1.199-.82 2.57.155 3.715.959 1.133 2.241 1.278 3.617.888 2.727-.737 4.13-2.796 5.053-5.258 2.085-5.422-.638-10.766-6.01-11.723-3.4-.593-7.21.504-9.716 2.803-6.777 6.243-9.413 15.903-7.475 23.67 1.595 6.38 7.785 9.991 15.188 9.514 5.76-.347 10.457-3.097 13.753-5.889a14.75 14.75 0 0 0 2.501 3.167c8.354 8.053 18.565-2.106 21.806-9.881 1.12-2.71 1.641-5.848 1.5-8.931.571-.392 1.304-.888 2.299-1.549.733-.45 1.313-.22 1.442.558-.082 3.897-.29 8.418-.383 9.894-.124 1.688-.173 6.53-.034 8.683.204 3.42 3.372 4.67 6.485 3.968 1.65-.376 2.671-1.672 3.332-3.165.686-1.538 2.104-5.035 2.778-6.716 1.118-2.757 2.698-5.287 3.187-5.882.453-.561 1.14-1.037 1.702-1.001.709.052 1.03.591 1.023 1.015-.044 1.84-.175 3.438-.294 5.249-.3 3.555.089 5.944.534 7.095.352.87 1.183 1.878 2.664 2.474 2.482.94 5.353.082 6.657-2.413 1.881-3.542 2.426-6.587 4.07-10.265.419-.909 1.099-2.452 2.473-2.642.41-.034 1.493.179 1.512 1.035.014.574-.246 5.988.14 9.172.042.412.075.784.124 1.083.328 1.952 1.808 4.104 4.723 4.622.838.232 1.808.303 2.9.232.873-.082 1.72-.356 2.54-.75a14.162 14.162 0 0 0 3.04-1.476c.944-.592 4.132-2.16 5.734-4.877 1.003-1.68.958-4.417.064-5.803z" fill="#EF343E" fill-rule="evenodd"/></svg>