<svg xmlns="http://www.w3.org/2000/svg" width="24" height="14" viewBox="0 0 24 14"><path fill-rule="evenodd" d="M19.937 6.864S23.1 2.42 23.414.96c.104-.522-.126-.814-.67-.814H20c-.628 0-.859.271-1.047.668 0 0-1.483 3.148-3.288 5.132-.58.642-.874.835-1.194.835-.258 0-.377-.214-.377-.793V.918c0-.71-.084-.918-.67-.918H9.026c-.335 0-.544.194-.544.459 0 .668 1.026.819 1.026 2.629v3.735c0 .75-.042 1.043-.398 1.043-.942 0-3.183-3.234-4.44-6.906C4.42.209 4.147 0 3.435 0H.69C.293 0 0 .271 0 .668c0 .73.859 4.11 4.23 8.638C6.492 12.352 9.466 14 12.147 14c1.633 0 2.031-.271 2.031-.96v-2.337c0-.584.23-.834.565-.834.377 0 1.043.12 2.597 1.648C19.183 13.27 19.31 14 20.314 14h3.079c.314 0 .607-.146.607-.668 0-.688-.9-1.92-2.283-3.38-.565-.75-1.487-1.564-1.78-1.94-.419-.438-.293-.689 0-1.148"/></svg>