<svg xmlns="http://www.w3.org/2000/svg" width="24" height="14" viewBox="0 0 24 14"><path d="M19.937 6.867s3.162-4.443 3.476-5.904c.105-.522-.126-.814-.67-.814H20c-.629 0-.86.272-1.047.669 0 0-1.484 3.147-3.288 5.132-.58.642-.874.835-1.194.835-.258 0-.377-.214-.377-.79V.918c0-.709-.084-.918-.67-.918H9.026c-.335 0-.544.194-.544.458 0 .669 1.026.82 1.026 2.63v3.734c0 .75-.04 1.043-.397 1.043-.943 0-3.183-3.234-4.44-6.906C4.422.208 4.149 0 3.438 0H.692C.293 0 0 .272 0 .668c0 .73.86 4.11 4.233 8.638C6.494 12.352 9.468 14 12.149 14c1.633 0 2.028-.272 2.028-.96v-2.336c0-.585.23-.835.566-.835.376 0 1.042.12 2.596 1.648C19.182 13.27 19.307 14 20.313 14h3.08c.313 0 .607-.146.607-.667 0-.69-.9-1.92-2.283-3.38-.565-.752-1.487-1.566-1.78-1.94-.419-.438-.294-.689 0-1.146z"/></svg>