<svg xmlns="http://www.w3.org/2000/svg" xmlns:xlink="http://www.w3.org/1999/xlink" width="805" height="996" viewBox="0 0 805 996">
    <defs>
        <path id="a" d="M0 0h806v996H0z"/>
    </defs>
    <g fill="none" fill-rule="evenodd">
        <mask id="b" fill="#fff">
            <use xlink:href="#a"/>
        </mask>
        <g fill="#D9D9D9" mask="url(#b)">
            <path fill-rule="nonzero" d="M550.98 416.387c-88.7 85.657-244.481 97.556-348.45 26.68-104.749-71.406-117.346-199.88-27.944-286.215 88.7-85.657 244.481-97.556 348.45-26.681 104.748 71.407 117.346 199.881 27.944 286.216zm-8.336-8.632c83.875-80.998 72.157-200.505-26.367-267.669-99.304-67.695-248.778-56.277-333.355 25.398-83.875 80.997-72.157 200.505 26.367 267.668 99.304 67.695 248.778 56.278 333.355-25.397z"/>
            <path fill-rule="nonzero" d="M626.366 995.939c89.798-86.717 147.338-189.64 168.938-298.794 41.333-208.875-51.944-420.201-252.74-557.083C365.79 19.556 133.204-24.71-89.877 14.939l2.1 11.815c220.084-39.117 449.486 4.543 623.581 123.223C732.73 284.22 823.905 490.788 783.532 694.816c-21.115 106.706-77.434 207.445-165.502 292.49l8.336 8.633z"/>
            <path fill-rule="nonzero" d="M552.749 397.757l-440.992 441 8.486 8.486 440.991-441zM172.749 158.757L-87.243 418.75l8.486 8.485 259.991-259.991z"/>
            <path fill-rule="nonzero" d="M178.677 159.315l380.85 244.123 6.477-10.103-380.852-244.123z"/>
            <path d="M510.49 492.696L478.62 472l-8.62 8.71 31.87 20.697zM446.49 556.696L414.62 536l-8.62 8.71 31.87 20.697zM382.49 620.696L350.62 600l-8.62 8.71 31.87 20.697zM318.49 684.696L286.62 664l-8.62 8.71 31.87 20.697zM254.49 748.696L222.62 728l-8.62 8.71 31.87 20.697zM190.49 812.696L158.62 792l-8.62 8.71 31.87 20.697zM108.49 239.696L76.62 219 68 227.71l31.87 20.697zM45.49 302.696L13.62 282 5 290.71l31.87 20.697z"/>
        </g>
    </g>
</svg>
