<svg xmlns="http://www.w3.org/2000/svg" width="196" height="191" viewBox="0 0 196 191">
    <g fill="none" fill-rule="evenodd">
        <path stroke="#D9D9D9" stroke-width="5" d="M102.004 143.514c31.77-30.68 27.333-76.124-9.91-101.504-37.244-25.38-93.19-21.082-124.96 9.598-31.77 30.68-27.333 76.124 9.91 101.504 37.244 25.38 93.19 21.082 124.96-9.598z"/>
        <path stroke="#D9D9D9" stroke-width="5" d="M129.566 355.92c33.384-32.237 53.69-69.808 61.34-108.388 14.606-73.657-16.92-150.99-91.636-201.906C33.25.636-51.994-13.847-130.904.21M105.784 139.834L-37.272 282.77M-31.754 49.068l139.656 89.443"/>
        <path fill="#D9D9D9" d="M88.732 173.064l-11.686-7.583-3.16 3.191 11.686 7.583zM65.63 196.146l-11.686-7.583-3.16 3.192 11.686 7.582z"/>
    </g>
</svg>
