<svg xmlns="http://www.w3.org/2000/svg" width="13" height="22" viewBox="0 0 13 22">
    <path fill="#000" fill-rule="evenodd" d="M12.204.004L9.326 0C6.092 0 4.003 2.073 4.003 5.28v2.435H1.109a.445.445 0 0 0-.453.438v3.527c0 .242.203.438.453.438h2.894v8.9c0 .242.202.438.452.438h3.776c.25 0 .453-.196.453-.437v-8.901h3.383c.25 0 .453-.196.453-.438l.001-3.527a.43.43 0 0 0-.132-.31.46.46 0 0 0-.32-.128H8.684V5.651c0-.992.244-1.495 1.581-1.495l1.939-.001c.25 0 .452-.196.452-.438V.442a.445.445 0 0 0-.452-.438z"/>
</svg>
