<svg xmlns="http://www.w3.org/2000/svg" width="200" height="71" viewBox="0 0 200 71">
    <g fill="none" fill-rule="evenodd">
        <rect width="200" height="70.476" fill="#168DE2" rx="8"/>
        <path fill="#FCB349" d="M39.652 28.654c-.206-3.787-3.185-6.064-6.781-6.064h-.136c-4.151 0-6.453 3.08-6.453 6.579 0 3.918 2.785 6.392 6.436 6.392 4.072 0 6.75-2.813 6.943-6.142l-.009-.765zm-6.897-9.451c2.774 0 5.382 1.156 7.297 2.967v.007c0-.87.62-1.525 1.481-1.525l.217-.001c1.347 0 1.624 1.202 1.624 1.583l.007 13.522c-.095.885.967 1.342 1.557.774 2.301-2.23 5.053-11.47-1.43-16.823-6.043-4.992-14.151-4.169-18.463-1.364-4.584 2.983-7.517 9.585-4.668 15.786 3.106 6.765 11.994 8.782 17.276 6.77 2.675-1.019 3.91 2.394 1.133 3.508-4.198 1.689-15.881 1.519-21.338-7.403-3.688-6.024-3.492-16.623 6.288-22.114 7.481-4.2 17.345-3.037 23.292 2.824 6.217 6.127 5.855 17.6-.21 22.064-2.747 2.026-6.828.053-6.802-2.9l-.028-.966a10.522 10.522 0 0 1-7.233 2.836c-5.48 0-10.302-4.55-10.302-9.72 0-5.223 4.822-9.825 10.302-9.825zM139.916 38.906c-.011.837-.94 1.695-2.285 1.695-1.358 0-2.204-.937-2.204-1.765l.001-1.429c.017-.861.86-1.756 2.238-1.756 1.506 0 2.254.96 2.254 1.861l-.004 1.394zM154.613 18.676c-6.264.025-11.607 5.236-11.577 10.97v8.938c0 1.164 1.01 2.017 2.074 2.017 1.265 0 2.248-.883 2.248-1.955V29.57c-.003-3.25 3.006-6.836 7.228-6.817 1.375.006 2.278-.978 2.27-2.066-.004-.871-.667-2.018-2.243-2.012zM180.633 18.676c-1.331 0-2.19 1.03-2.19 1.978l.001 8.995c0 3.473-3.098 6.863-7.406 6.863-3.523 0-7.254-2.884-7.254-6.798v-9.01c0-.945-.751-2.028-2.243-2.028-1.054 0-2.13.834-2.13 1.988v8.98c0 5.814 5.508 10.936 11.613 10.936 6.666 0 11.78-5.394 11.78-10.908V20.66c0-1.01-.883-1.984-2.17-1.984z"/>
        <path fill="#FFF" d="M117.242 15.44c0 .88-.935 1.606-2.282 1.606-1.357 0-2.202-.877-2.202-1.703v-1.137c.016-.861.814-1.825 2.19-1.825 1.506 0 2.294.921 2.294 1.825v1.233zM76.689 18.693c-2.754-.04-4.864 1.47-6.165 2.474-1.444-1.462-3.294-2.353-5.194-2.464-2.004-.117-3.883.52-5.079 1.436-.418-.916-.97-1.455-1.914-1.455a2.164 2.164 0 0 0-2.138 2.198c0 1.36.013 17.664.013 17.664 0 1.014.918 2.043 2.228 2.043 1.446 0 2.245-1.04 2.245-2.049V25.436c0-1.276 2.31-2.784 4.263-2.76 1.247.016 2.73 1.178 2.73 3.008l.012 12.886c0 1.14 1.214 2.013 2.317 2.013 1.31 0 2.302-.934 2.302-2V25.562c0-1.596 2.57-2.933 4.328-2.847 1.38.067 2.598 1.485 2.598 2.847v13.004c0 1.127 1.12 2.018 2.329 2.018 1.06 0 2.288-.663 2.288-2.037V25.598c.015-4.753-4.96-6.97-7.163-6.905zM114.979 18.678c-1.344.006-2.212 1.045-2.214 2.102l.005 17.747c-.01 1.177.979 2.055 2.2 2.055 1.394 0 2.284-1.028 2.284-2.146l.01-17.627c0-1.042-1.116-2.134-2.285-2.13zM97.716 36.535c-4.042 0-7.319-3.091-7.319-6.902 0-3.814 3.277-6.903 7.319-6.903s7.319 3.09 7.319 6.903c0 3.81-3.277 6.902-7.32 6.902zm9.455-17.851c-1.262-.002-2.155.952-2.155 1.881v.725a11.798 11.798 0 0 0-7.362-2.597c-6.134-.011-11.565 4.865-11.565 10.964 0 5.592 5.175 10.932 11.565 10.932 2.584 0 5.364-.938 7.34-2.528l.006.519c0 .993.833 2.009 2.203 2.009 1.554 0 2.25-1.172 2.25-2.098V20.678c.017-.835-.956-1.993-2.282-1.994zM130.38 36.35c-2.849-.002-5.388-2.068-5.388-5.117l.004-16.871c-.004-1.166-1.012-1.98-2.243-1.98-1.432.003-2.257.998-2.257 1.98v16.887c-.017 5.243 4.576 9.352 9.803 9.352 1.552 0 2.301-1.19 2.301-2.196 0-.96-.803-2.055-2.22-2.055zM150.692 48.249c-2.663.01-4.934 2.224-4.922 4.663v3.8c0 .495.431.856.883.856.537 0 .956-.374.956-.83v-3.86c-.003-1.38 1.278-2.904 3.07-2.896.587.003.967-.417.966-.88-.002-.368-.283-.855-.953-.853zM156.587 55.836c-1.707 0-3.088-1.295-3.108-2.901v-.07c.016-1.297.922-2.392 2.172-2.762a3.27 3.27 0 0 1 .926-.131c1.704 0 3.09 1.295 3.108 2.9v.071c-.017 1.297-.923 2.39-2.175 2.763-.29.085-.6.13-.923.13zm4.932-2.94c0-2.378-2.202-4.647-4.914-4.647-.033 0-.062.003-.093.005-2.586.02-4.867 2.082-4.867 4.658 0 2.377 2.198 4.649 4.917 4.649.029 0 .06-.006.09-.006 2.589-.024 4.867-2.084 4.867-4.659zM171.245 48.249c-.565 0-.93.438-.93.842v3.82c0 1.478-1.318 2.918-3.15 2.918-1.498 0-3.084-1.225-3.084-2.89V49.11c0-.401-.317-.861-.952-.861-.447 0-.905.353-.905.845v3.817c0 2.47 2.342 4.648 4.936 4.648 2.833 0 5.008-2.292 5.008-4.638v-3.83c0-.427-.375-.842-.923-.842zM177.862 55.836c-1.57 0-2.868-1.1-3.076-2.529v-.813c.208-1.426 1.507-2.524 3.076-2.524 1.719 0 3.112 1.311 3.112 2.932 0 1.62-1.393 2.934-3.112 2.934zm.027-7.584a5.008 5.008 0 0 0-3.127 1.105v-.308c0-.396-.382-.8-.918-.8-.564.002-.977.492-.97.846v11.252c-.005.501.418.874.939.874.592 0 .968-.436.968-.913l.002-3.81c.84.668 2.013 1.063 3.106 1.063 2.717 0 4.916-2.272 4.916-4.65 0-2.59-2.306-4.662-4.916-4.659zM140.04 55.836c-1.72 0-3.113-1.313-3.113-2.934 0-1.62 1.392-2.932 3.113-2.932 1.716 0 3.111 1.311 3.111 2.932 0 1.62-1.395 2.934-3.111 2.934zm4.019-7.587c-.537 0-.916.404-.916.8v.308a5.017 5.017 0 0 0-3.129-1.105c-2.61-.003-4.918 2.07-4.918 4.66 0 2.377 2.2 4.649 4.918 4.649 1.098 0 2.277-.399 3.12-1.076 0 0 .016.356.031.423-.144 1.076-.971 2.06-2.388 2.485-.953.287-3.693-.324-3.916-.362-.644-.108-.97.417-.964.879 0 .37.314.663.953.855.813.244 2.235.393 3.479.408.934.013 4.573-.68 4.699-4.44v-7.638c.008-.354-.407-.844-.97-.846z"/>
    </g>
</svg>
