<svg xmlns="http://www.w3.org/2000/svg" xmlns:xlink="http://www.w3.org/1999/xlink" width="187" height="52" viewBox="0 0 187 52"><defs><linearGradient id="a" x1="21.1%" x2="76.347%" y1="10.474%" y2="84.393%"><stop offset="0%" stop-color="#FF7BD2"/><stop offset="100%" stop-color="#F567C4"/></linearGradient><path id="b" d="M54.827.037H0v44.896h54.827V.037z"/></defs><g fill="none" fill-rule="evenodd"><circle cx="167.5" cy="19.5" r="19.5" fill="#E348AD"/><path fill="url(#a)" d="M168.15 13.92a31.363 31.363 0 0 0-7.827 6.417A29.036 29.036 0 0 1 165.556 37a29.5 29.5 0 0 1-.064 1.844c.662.068 1.335.103 2.015.103 9.292 0 17.053-6.492 19.015-15.176a29.22 29.22 0 0 1-18.373-9.85zm-14.582 19.165a19.506 19.506 0 0 0 7.356 4.702c.01-.282.02-.563.02-.847 0-4.65-1.29-9-3.532-12.71a31.05 31.05 0 0 0-3.844 8.855zm-5.154-17.606a19.532 19.532 0 0 0-.414 3.994c0 3.26.812 6.325 2.23 9.024a35.696 35.696 0 0 1 4.3-8.138 24.792 24.792 0 0 0-6.116-4.88zM187 19.2a19.33 19.33 0 0 0-2.61-9.45c-.21-.003-.417-.012-.628-.012-4 0-7.822.76-11.337 2.13A24.657 24.657 0 0 0 187 19.198zm-29.59-2.41a35.933 35.933 0 0 1 8.016-6.547 29.04 29.04 0 0 1-3.78-9.345c-5.2 1.634-9.443 5.393-11.752 10.247a29.424 29.424 0 0 1 7.516 5.646zm23.468-11.47c-3.493-3.29-8.19-5.32-13.37-5.32-.484 0-.957.04-1.43.073a24.537 24.537 0 0 0 3.397 8.092 35.642 35.642 0 0 1 11.403-2.844z"/><path fill="#E8E8E8" d="M61.59 21.052c-1.32-1.055-2.62-.884-4.146.352-1.185.964-1.49 3.64-.177 4.697 1.323 1.05 3.36.79 4.542-.603 1.19-1.392 1.092-3.392-.22-4.445"/><g transform="translate(0 6.222)"><mask id="c" fill="#fff"><use xlink:href="#b"/></mask><path fill="#E8E8E8" d="M40.52 35.75c-.11.39-.51.522-.896.22-1.132-.875-1.406-2.097-1.334-3.013.054-.652.485-2.25 3.055-4.616-.06 1.706-.357 5.72-.825 7.41m10.993-19.646c-1.313.18-2.243.743-2.98 1.123 0-.07 0-.118-.007-.19.11-2.166.146-4.37.346-6.51.027-.256.05-.516.087-.79.644-3.1 1.485-4.868 1.362-6.223-.05-.652-.11-1.008-.367-1.626-.284-.566-.7-.907-1.144-1.18a2.757 2.757 0 0 0-.537-.33l-.01-.013h-.006c-.1-.046-.204-.09-.305-.13-1.218-.442-2.43-.094-3.24.916-.728.91-.98 1.992-1.23 3.09-.407 1.74-.847 4.46-1.367 6.173-.4 1.334-1.202 3.013-2.204 3.684-.992.68-2.14.386-2.577-1.065-.504-1.73-.367-3.743-.115-5.482.182-1.255 1.07-1.384 1.292-3.374.274-2.456-.99-3.93-3.175-4.12-1.46-.134-2.678.464-3.45 1.967-.784 1.51-1.027 3.16-1.127 4.827-.075 1.318-.056 2.824-.062 4.122-.045.09-.096.184-.15.274-1.06 1.905-3.153 3.882-3.69 3.544-.29-.194-.193-.814-.205-1.115-.046-2.265.3-6.396.592-9.41.17-1.796-.87-3.236-3.183-3.228-1.494.002-2.37.925-3.2 1.826-1.427 1.552-2.59 3.33-3.695 4.642-.184.22-.496.618-.822.513-.33-.118-.36-.598-.367-.89-.024-1.483.028-1.2.02-2.692-.004-.35-.07-1.127-.128-1.678C15.7 1.142 14.028.316 12.59.533c-.922.138-1.637.75-2.126 1.536C9.692 3.325 9.36 3.93 8.67 5.235c-.498.95-.65 1.22-.948 1.706-.252.39-.58.77-.95.83-.47.07-.52-.398-.52-.44-.018-.72-.057-2.274-.057-2.497 0-.866.145-2.904-1.54-3.084C.624 1.326.05 5.84.01 8.03c-.04 2.373.036 4.037.08 6.42.03 1.83.034 2.88.18 4.7.168 2.027 1.822 3.134 3.646 2.545.948-.298 1.575-.99 1.975-1.872.406-.91 1.196-2.998 1.64-3.97.523-1.146 1.036-2.52 1.568-3.477.202-.375.664-.614 1.003-.592.42.03.61.35.598.6-.023 1.087-.103 2.032-.168 3.103-.18 2.102.053 3.514.317 4.194.206.517.69 1.11 1.572 1.464 1.462.556 3.162.05 3.936-1.426 1.108-2.095 1.428-3.894 2.397-6.07.25-.537.653-1.45 1.468-1.558.248-.023.88.102.89.608.01.38-.17 4.237.175 5.95.306 1.515 1.717 3.198 4.49 2.984.81-.063 1.582-.43 2.3-.95.915-.367 2.017-1.436 3.3-3.596.41 1.436 1.462 2.687 2.013 3.38 1.86 2.347 4.607 2.434 6.727.447 1.022-.96 1.502-1.81 1.858-2.628-.063.867-.13 1.8-.186 2.763-6.41 4.158-9.715 8.337-10.045 12.64-.306 3.867 1.758 7.73 6.122 10.29 1.025.594 2.046.986 3.08.953a4.49 4.49 0 0 0 1.863-.46c3.644-1.8 4.27-11.564 5.237-20.166 1.576-.904 2.405-1.372 4.542-2.37 1.095-.526 2.32-.546 2.235-2.697-.05-1.777-.96-3.466-3.308-3.133" mask="url(#c)"/></g><path fill="#E8E8E8" d="M91.95 19.42c-1.03 2.15-3.705 5.14-5.396 1.995-1.07-2-.54-4.867.392-7.073.08-.153.128-.293.173-.4v-.002c.185-.385.365-.745.553-1.082.046-.066.08-.14.114-.22 1.055-1.53 2.547-1.692 3.884-.464 1.868 1.708 1.242 5.24.28 7.247m40.572.804c-.82-1.263-2.08-1.33-2.85-.994-1.1.488-2.66 1.475-2.97 1.257-.018-.003-.028-.003-.028-.003-.017-.22 0-.44 0-.587-.044-2.22.282-6.253.564-9.235.008-.082.02-.152.034-.222.145-1.095-.203-2.052-1.055-2.585-.52-.372-1.23-.598-2.135-.595-1.495.002-2.373.925-3.207 1.826-1.422 1.55-2.588 3.33-3.694 4.642-.182.22-.49.617-.82.512-.32-.117-.36-.598-.363-.89-.022-1.483.022-1.2.015-2.692a21.976 21.976 0 0 0-.126-1.677c-.173-1.615-1.838-2.442-3.28-2.224-.917.138-1.633.75-2.118 1.536-.78 1.257-1.11 1.86-1.8 3.166-.663 1.26-.706 1.334-1.323 2.314-.103.16-.45.924-.7.835-.256-.09-.384-.703-.386-.89-.023-.615-.223-2.28-.247-2.53-.137-1.36-.392-4.082-2.1-4.57-.41-.18-.925-.296-1.56-.34-1.982-.125-3.92 1.83-5.375 2.965-.206.157-.486.37-.793.62a7.566 7.566 0 0 0-3.88-3.097c-5.082-1.784-9.644 2.415-10.315 7.26-.536 1.758-.843 3.612-.793 5.42-1.8 1.76-3.35 2.455-4.877 2.702-1.91.288-5.006.18-5.25-2.63-.367-4.12 1.64-6.07 2.123-6.632.254-.29.683-.577.947-.29.266.3.06.87-.208 1.35-.432.71-.485 1.52.092 2.2.566.67 1.325.754 2.138.523 1.612-.435 2.44-1.653 2.987-3.11 1.23-3.204-.378-6.363-3.554-6.93-2.01-.35-4.262.3-5.743 1.658-4.006 3.69-5.564 9.403-4.418 13.995.942 3.772 4.6 5.907 8.977 5.625 3.405-.205 6.18-1.83 8.13-3.48a8.714 8.714 0 0 0 1.478 1.87c4.938 4.762 10.974-1.244 12.89-5.84.662-1.603.97-3.46.886-5.28.338-.233.77-.526 1.36-.917.433-.266.776-.13.852.33a177.866 177.866 0 0 1-.227 5.85c-.072.998-.1 3.86-.02 5.133.122 2.023 1.995 2.76 3.835 2.347.975-.222 1.58-.988 1.97-1.87.405-.91 1.243-2.978 1.64-3.972.662-1.63 1.596-3.126 1.885-3.477.268-.332.674-.613 1.006-.592.42.03.61.35.605.6-.025 1.087-.102 2.032-.173 3.103-.177 2.1.052 3.513.316 4.194.208.515.7 1.11 1.575 1.463 1.467.556 3.164.048 3.935-1.427 1.112-2.094 1.434-3.894 2.406-6.07.246-.536.648-1.45 1.46-1.56.242-.02.883.105.894.61.008.34-.145 3.54.083 5.424.025.243.044.464.073.64.194 1.154 1.07 2.426 2.792 2.733.495.137 1.07.18 1.714.137.516-.05 1.016-.21 1.502-.444a8.353 8.353 0 0 0 1.797-.872c.558-.35 2.442-1.277 3.39-2.884.592-.993.566-2.61.037-3.43"/></g></svg>