<svg xmlns="http://www.w3.org/2000/svg" width="228" height="50" viewBox="0 0 228 50">
    <g fill="none" fill-rule="nonzero">
        <path fill="#EB722E" d="M14.545 8.269c2.825 0 5.122 2.321 5.122 5.175 0 2.851-2.298 5.173-5.122 5.173-2.822 0-5.12-2.322-5.12-5.173-.001-2.854 2.298-5.175 5.12-5.175zm0 17.67c6.823 0 12.372-5.604 12.372-12.495 0-6.894-5.548-12.5-12.372-12.5-6.822 0-12.37 5.607-12.37 12.5 0 6.89 5.548 12.495 12.37 12.495zm5.005 10.195a23.03 23.03 0 0 0 7.184-3.005c1.694-1.077 2.203-3.337 1.137-5.049a3.624 3.624 0 0 0-2.263-1.622 3.59 3.59 0 0 0-2.735.47 15.573 15.573 0 0 1-16.655 0 3.59 3.59 0 0 0-2.735-.47c-.937.215-1.751.8-2.262 1.622-1.066 1.711-.558 3.972 1.135 5.049a23.052 23.052 0 0 0 7.183 3.005l-6.916 6.989a3.688 3.688 0 0 0-.938 3.537 3.644 3.644 0 0 0 2.564 2.59 3.6 3.6 0 0 0 3.5-.949l6.795-6.866 6.799 6.867a3.6 3.6 0 0 0 2.56 1.073 3.6 3.6 0 0 0 2.562-1.073 3.675 3.675 0 0 0 1.063-2.59c0-.97-.382-1.902-1.063-2.588l-6.915-6.99z"/>
        <path fill="#414141" d="M109.612 28.311c.629-.337 1.79-1.396 2.184-2.775l.936-3.668a.188.188 0 0 0-.027-.166.179.179 0 0 0-.145-.077h-2.423a.18.18 0 0 0-.172.133s-.605 2.869-.906 3.64c-.3.771-1.063 1.47-1.51 1.747-.217.137-.46.228-.714.265-.258.04-.527.06-.8.06h-2.36v-5.658a.185.185 0 0 0-.18-.188h-2.423a.185.185 0 0 0-.181.188v15.21c0 .103.08.186.18.186h2.423a.185.185 0 0 0 .18-.187v-7.123h2.684c.45 0 3.056.333 3.288 2.226l.527 4.949c.02.08.091.135.173.137h2.481a.184.184 0 0 0 .146-.078.188.188 0 0 0 .026-.164s-.453-3.35-.823-5.686c-.37-2.338-2.608-2.99-2.564-2.97zm44.588 4.814a.182.182 0 0 0-.134-.063c-.067-.012-.1.024-.134.063-.34.392-.778.746-1.3 1.05-.506.298-1.083.455-1.67.453-1.318 0-2.349-.428-3.067-1.273-.724-.847-1.091-2.161-1.091-3.908 0-1.766.366-3.087 1.091-3.924.717-.834 1.748-1.256 3.068-1.256.544 0 1.085.135 1.606.397.523.259.987.624 1.363 1.072a.195.195 0 0 0 .135.064.177.177 0 0 0 .136-.062l1.566-1.84a.192.192 0 0 0-.01-.26 8.191 8.191 0 0 0-2.174-1.567c-.811-.398-1.732-.602-2.735-.602-.863 0-1.713.15-2.526.44a5.883 5.883 0 0 0-2.193 1.408c-.635.64-1.15 1.47-1.533 2.471-.383 1-.576 2.23-.576 3.658 0 1.408.193 2.629.576 3.625.382 1.004.898 1.836 1.533 2.476a5.822 5.822 0 0 0 2.193 1.406 7.47 7.47 0 0 0 2.526.44c1.026 0 1.956-.202 2.765-.6a7.86 7.86 0 0 0 2.176-1.602.194.194 0 0 0 .006-.26l-1.593-1.807h-.004zm12.728 0a.18.18 0 0 0-.133-.063c-.033-.01-.1.024-.134.063-.333.386-.769.737-1.297 1.049a3.262 3.262 0 0 1-1.67.453c-1.317 0-2.35-.428-3.07-1.273-.725-.852-1.092-2.165-1.092-3.908 0-1.762.367-3.082 1.092-3.924.72-.833 1.752-1.256 3.07-1.256.544 0 1.083.134 1.606.397a4.19 4.19 0 0 1 1.36 1.072c.034.04.083.064.136.064.051 0 .1-.022.136-.063l1.566-1.84a.192.192 0 0 0-.01-.258 8.202 8.202 0 0 0-2.173-1.568c-.814-.398-1.736-.602-2.735-.602-.864 0-1.715.15-2.529.44-.824.3-1.573.78-2.19 1.408-.637.64-1.154 1.47-1.534 2.471-.382 1.004-.577 2.235-.577 3.658 0 1.403.195 2.623.577 3.625.38 1.004.896 1.836 1.533 2.475a5.847 5.847 0 0 0 2.191 1.407c.814.29 1.665.44 2.529.44 1.023 0 1.954-.203 2.763-.602a7.844 7.844 0 0 0 2.176-1.6.193.193 0 0 0 .006-.26l-1.595-1.808v.003h-.002zm-27.66-1.043c0 .536-.102.973-.298 1.297a2.33 2.33 0 0 1-.797.798c-.354.21-.743.353-1.148.42-.455.083-.898.12-1.357.12-1.036 0-1.81-.203-2.296-.603-.48-.395-.712-1.284-.712-1.947 0-.658.226-1.523.692-1.876.479-.364 1.178-.548 2.08-.548h3.837v2.338h-.002zm2.782-5.52c0-.982-.164-1.816-.493-2.475a4.011 4.011 0 0 0-1.34-1.572c-.553-.38-1.208-.651-1.948-.812a11.012 11.012 0 0 0-2.287-.234 7.877 7.877 0 0 0-2.864.517c-.89.35-1.63.87-2.194 1.542a.19.19 0 0 0 .007.25l1.536 1.686c.035.038.084.06.135.059a.183.183 0 0 0 .134-.066c.317-.385.73-.692 1.234-.913.505-.225 1.218-.339 2.113-.339 1.135 0 1.963.195 2.46.577.487.374.726.936.726 1.72v.784h-4.426c-.81 0-1.525.129-2.12.381a4.351 4.351 0 0 0-1.51 1.024c-.401.429-.71.936-.911 1.49-.204.557-.308 1.525-.308 2.14 0 1.36.472 2.868 1.403 3.75.925.878 2.262 1.321 3.976 1.321 1.021 0 1.907-.15 2.632-.44.533-.214.956-.482 1.262-.792l.309.861c0 .104.08.188.18.188h2.425a.185.185 0 0 0 .18-.188s-.308-1.025-.308-2.432l-.003-8.026zm85.173-4.938h-2.044c-.06 0-.113.03-.147.08l-5.453 7.975-1.863 2.822V21.81a.185.185 0 0 0-.18-.187h-2.423a.186.186 0 0 0-.18.188v15.21c-.001.101.08.184.18.186h2.332c.06 0 .115-.03.148-.08l6.97-10.453v10.346c0 .104.081.187.18.187h2.48c.1 0 .181-.084.181-.187V21.812a.186.186 0 0 0-.181-.188zm-17.685 6.687c.629-.337 1.79-1.396 2.184-2.775l.935-3.668a.188.188 0 0 0-.027-.166.18.18 0 0 0-.144-.077h-2.424a.18.18 0 0 0-.172.133s-.605 2.869-.906 3.64c-.3.771-1.063 1.47-1.51 1.747a1.843 1.843 0 0 1-.715.265c-.258.04-.527.06-.8.06h-2.36v-5.658a.185.185 0 0 0-.181-.188h-2.423a.185.185 0 0 0-.18.188v15.21c0 .103.08.186.18.186h2.423c.048 0 .095-.02.128-.055a.185.185 0 0 0 .052-.132v-7.123h2.683c.451 0 3.057.333 3.29 2.226l.526 4.949c.02.08.092.136.173.137h2.48a.179.179 0 0 0 .146-.077.193.193 0 0 0 .027-.165s-.454-3.35-.824-5.686c-.37-2.338-2.606-2.99-2.561-2.97zm-11.79-6.687h-2.046c-.059 0-.114.03-.147.08l-5.451 7.975-1.863 2.825V21.812a.185.185 0 0 0-.18-.188h-2.423a.185.185 0 0 0-.18.188v15.21c0 .103.081.186.18.186h2.334c.06 0 .115-.03.148-.08l6.967-10.451V37.02c0 .104.08.187.18.187h2.48c.1 0 .181-.084.181-.187V21.812a.186.186 0 0 0-.18-.188zm-15.564 0h-2.421a.185.185 0 0 0-.181.188v5.595h-6.433v-5.595a.185.185 0 0 0-.18-.188h-2.424a.185.185 0 0 0-.18.188v15.21c0 .103.08.186.18.186h2.423c.049 0 .095-.02.129-.055a.185.185 0 0 0 .052-.132v-7.215h6.433v7.217c0 .103.08.186.18.186h2.422c.049 0 .095-.02.129-.055a.185.185 0 0 0 .051-.131V21.812a.185.185 0 0 0-.18-.188zm-86.24 9.72c0 1.873-1.536 3.392-3.431 3.392-1.896 0-3.433-1.519-3.433-3.392v-3.772c0-1.874 1.537-3.393 3.433-3.393 1.895 0 3.431 1.52 3.431 3.393v3.772zm-3.42-9.844c-3.423 0-6.2 2.75-6.2 6.139v3.612c0 3.392 2.777 6.141 6.2 6.141 3.424 0 6.2-2.75 6.2-6.14v-3.613c0-3.39-2.776-6.14-6.2-6.14zm-27.28 13.095h-6.531c.353-.663.588-1.474.703-2.412.128-1.048.323-2.387.402-3.983l.347-3.994h5.08v10.389zm4.196 0h-1.356V21.81a.185.185 0 0 0-.18-.187H57.868a.184.184 0 0 0-.18.178l-.476 6.466c-.06.98-.21 1.817-.268 2.511-.06.685-.152 1.278-.275 1.762-.125.483-.293.874-.517 1.196-.217.308-.476.65-.869.837-.393.187-1.442.269-1.442.269a.183.183 0 0 0-.148.184v6.133c0 .104.08.187.18.187h2.424c.1 0 .18-.084.18-.187V37.21h10.361v3.951c0 .104.08.187.18.187h2.42a.185.185 0 0 0 .182-.187v-6.379a.185.185 0 0 0-.181-.186h.001zm14.203-12.971h-2.424a.185.185 0 0 0-.18.187v5.596h-6.432V21.81a.185.185 0 0 0-.18-.187h-2.423a.185.185 0 0 0-.18.187v15.21c0 .103.08.187.18.187h2.423a.185.185 0 0 0 .18-.188v-7.214h6.432v7.215c0 .104.08.188.18.188h2.424c.1 0 .18-.084.18-.188v-15.21a.185.185 0 0 0-.18-.187zm-33.59 9.719c0 1.874-1.538 3.393-3.433 3.393-1.895 0-3.432-1.52-3.432-3.393v-3.772c0-1.873 1.537-3.393 3.432-3.393s3.433 1.52 3.433 3.393v3.772zm-3.42-9.844c-3.425 0-6.2 2.75-6.2 6.14v3.611c0 3.393 2.775 6.141 6.2 6.141 3.423 0 6.198-2.748 6.198-6.14v-3.613c0-3.39-2.775-6.139-6.199-6.139zm81.222.124h-9.82a.185.185 0 0 0-.18.187s.047 7.044-.506 10.036c-.22 1.197-.333 1.365-.576 1.781-.236.408-.543.709-.915.894a14.8 14.8 0 0 1-1.384.607.19.19 0 0 0-.11.233l.648 2.116a.18.18 0 0 0 .172.13l.033-.003a7.39 7.39 0 0 0 2.103-.708c.624-.329 1.16-.828 1.59-1.488.422-.645.753-1.508.985-2.56.23-1.048.39-2.456.483-3.952l.203-4.69h4.616v12.815c0 .103.08.186.18.186h2.48c.049 0 .095-.02.129-.055a.185.185 0 0 0 .052-.131V21.81a.185.185 0 0 0-.18-.188h-.003z"/>
    </g>
</svg>
