<svg xmlns="http://www.w3.org/2000/svg" width="12" height="21" viewBox="0 0 12 21">
    <g fill="#000" fill-rule="evenodd">
        <path d="M6 3.088c1.187 0 2.153.978 2.153 2.181 0 1.202-.966 2.18-2.153 2.18-1.186 0-2.153-.978-2.153-2.18 0-1.203.967-2.181 2.153-2.181zm0 7.448c2.868 0 5.2-2.362 5.2-5.267C11.2 2.363 8.868 0 6 0 3.132 0 .8 2.363.8 5.27c0 2.904 2.332 5.266 5.2 5.266z"/>
        <path d="M8.163 14.735a9.943 9.943 0 0 0 3.105-1.303 1.6 1.6 0 0 0 .491-2.189 1.553 1.553 0 0 0-2.16-.499 6.712 6.712 0 0 1-7.198 0 1.553 1.553 0 0 0-2.16.5 1.6 1.6 0 0 0 .49 2.188 9.956 9.956 0 0 0 3.105 1.303L.847 17.763a1.602 1.602 0 0 0 0 2.244 1.552 1.552 0 0 0 2.217 0l2.935-2.976 2.939 2.976c.611.62 1.603.62 2.214 0a1.6 1.6 0 0 0 0-2.244l-2.989-3.028"/>
    </g>
</svg>
