<svg xmlns="http://www.w3.org/2000/svg" width="16" height="16" viewBox="0 0 16 16">
    <path fill="#FF7BD2" fill-rule="evenodd" d="M8 0c4.415 0 8 3.585 8 8s-3.585 8-8 8-8-3.585-8-8 3.585-8 8-8zm-.447 1.718c-.498.035-.98.128-1.44.272a9.544 9.544 0 0 0 1.213 2.988c-.97.584-1.845 1.31-2.605 2.143a9.566 9.566 0 0 0-2.408-1.829 6.247 6.247 0 0 0-.479 1.422 8.07 8.07 0 0 1 1.95 1.576 11.714 11.714 0 0 0-1.376 2.608c.286.55.651 1.054 1.08 1.494.27-1.015.686-1.97 1.233-2.836a8.071 8.071 0 0 1 1.144 4.37c.472.17.97.286 1.487.339a9.553 9.553 0 0 0-1.684-5.982A10.21 10.21 0 0 1 8.21 6.181a9.477 9.477 0 0 0 5.93 3.22 6.307 6.307 0 0 0 .156-1.497 7.993 7.993 0 0 1-4.696-2.396 10.063 10.063 0 0 1 3.685-.697c.05 0 .098.002.147.003a6.332 6.332 0 0 0-1.162-1.442c-1.28.112-2.501.43-3.629.924a8.06 8.06 0 0 1-1.089-2.58z" />
</svg>
