<svg xmlns="http://www.w3.org/2000/svg" width="18" height="21" viewBox="0 0 18 21">
    <path fill="#CCC" fill-rule="evenodd" d="M10.131 4.423a.393.393 0 0 0 .157-.33 7.724 7.724 0 0 1-.002-.155C10.286 1.764 12.014 0 14.143 0 16.272 0 18 1.764 18 3.938c0 2.173-1.728 3.937-3.857 3.937a3.796 3.796 0 0 1-2.509-.947.37.37 0 0 0-.47-.023c-.726.535-2.815 2.084-3.406 2.523a.308.308 0 0 0-.116.306 4.07 4.07 0 0 1 0 1.532.307.307 0 0 0 .116.306c.591.44 2.68 1.988 3.405 2.526.143.105.34.095.472-.025a3.786 3.786 0 0 1 2.508-.948c2.129 0 3.857 1.764 3.857 3.938C18 19.236 16.272 21 14.143 21c-2.129 0-3.857-1.764-3.857-3.938 0-.051 0-.103.003-.154a.393.393 0 0 0-.158-.33l-3.724-2.763a.396.396 0 0 0-.459-.008c-.602.4-1.32.63-2.09.63C1.727 14.438 0 12.674 0 10.5s1.728-3.938 3.857-3.938c.77 0 1.49.232 2.092.63.14.095.322.091.457-.01.745-.55 3.075-2.277 3.725-2.76z"/>
</svg>
