<svg xmlns="http://www.w3.org/2000/svg" width="20" height="17" viewBox="0 0 20 17">
    <path fill="#000" fill-rule="evenodd" d="M20 1.933a8.159 8.159 0 0 1-2.356.65A4.138 4.138 0 0 0 19.448.301a8.244 8.244 0 0 1-2.607 1.001A4.08 4.08 0 0 0 13.846 0C11.58 0 9.743 1.847 9.743 4.124c0 .323.036.639.106.94A11.627 11.627 0 0 1 1.393.754 4.111 4.111 0 0 0 .84 2.827 4.13 4.13 0 0 0 2.663 6.26a4.086 4.086 0 0 1-1.858-.517v.051a4.124 4.124 0 0 0 3.29 4.045 4.134 4.134 0 0 1-1.08.145c-.266 0-.522-.027-.773-.077a4.108 4.108 0 0 0 3.832 2.865 8.203 8.203 0 0 1-5.095 1.763c-.332 0-.658-.02-.979-.056a11.552 11.552 0 0 0 6.289 1.856c7.547 0 11.673-6.286 11.673-11.737l-.014-.534A8.218 8.218 0 0 0 20 1.933z"/>
</svg>
