<svg xmlns="http://www.w3.org/2000/svg" width="70" height="70" viewBox="0 0 70 70">
  <g fill="none" fill-rule="evenodd">
    <path fill="#4D75A3" d="M10.9307692,0.161538462 L59.2341346,0.161538462 C62.0893847,0.161537204 64.8275438,1.29647144 66.8455634,3.31638472 C68.863583,5.33629801 69.9959485,8.07552044 69.9932692,10.9307692 L69.9932692,59.2341346 C69.9932692,65.1762406 65.1762406,69.9932692 59.2341346,69.9932692 L10.9307692,69.9932692 C8.07552044,69.9959485 5.33629801,68.863583 3.31638472,66.8455634 C1.29647144,64.8275438 0.161537204,62.0893847 0.161538462,59.2341346 L0.161538462,10.9307692 C0.158856251,8.07377023 1.29260703,5.33301555 3.31281129,3.31281129 C5.33301555,1.29260703 8.07377023,0.158856251 10.9307692,0.161538462 L10.9307692,0.161538462 Z"/>
    <path fill="#FFF" fill-rule="nonzero" d="M50.8980769,35.6663462 C50.8980769,35.6663462 56.9322115,27.1552885 57.53125,24.3586538 C57.7314904,23.3591346 57.290625,22.8004808 56.2524038,22.8004808 L51.0175481,22.8004808 C49.8194712,22.8004808 49.3786058,23.3204327 49.0201923,24.0793269 C49.0201923,24.0793269 46.1899038,30.1084135 42.7471154,33.9096154 C41.6415865,35.1379808 41.0795673,35.5081731 40.46875,35.5081731 C39.9774038,35.5081731 39.7502404,35.0975962 39.7502404,33.99375 L39.7502404,24.2745192 C39.7502404,22.9165865 39.5903846,22.5161058 38.4713942,22.5161058 L30.0798077,22.5161058 C29.4403846,22.5161058 29.0415865,22.8879808 29.0415865,23.3944712 C29.0415865,24.6733173 31.0002404,24.9627404 31.0002404,28.4290865 L31.0002404,35.5805288 C31.0002404,37.0192308 30.9211538,37.5778846 30.2413462,37.5778846 C28.4425481,37.5778846 24.1685096,31.3838942 21.7706731,24.3519231 C21.2911058,22.9132212 20.7711538,22.5144231 19.4149038,22.5144231 L14.1766827,22.5144231 C13.4177885,22.5144231 12.8574519,23.034375 12.8574519,23.7932692 C12.8574519,25.1915865 14.4963942,31.6649038 20.934375,40.3358173 C25.2487981,46.1697115 30.9228365,49.3264423 36.0382212,49.3264423 C39.1545673,49.3264423 39.9084135,48.8064904 39.9084135,47.4889423 L39.9084135,43.0129808 C39.9084135,41.8939904 40.3475962,41.4144231 40.9870192,41.4144231 C41.7055288,41.4144231 42.9759615,41.6449519 45.9408654,44.5711538 C49.4576923,47.928125 49.6966346,49.3264423 51.6149038,49.3264423 L57.4908654,49.3264423 C58.0899038,49.3264423 58.6502404,49.0471154 58.6502404,48.0475962 C58.6502404,46.7283654 56.9322115,44.3709135 54.2954327,41.5742788 C53.2168269,40.1355769 51.4584135,38.5774038 50.8997596,37.8588942 C50.0987981,37.0209135 50.3377404,36.5413462 50.8980769,35.6663462 Z"/>
  </g>
</svg>
