<svg xmlns="http://www.w3.org/2000/svg" width="70" height="70" viewBox="0 0 70 70">
  <g fill="none">
    <path fill="#4D75A3" d="M10.93,0.162 L59.234,0.162 C62.0892895,0.161999001 64.8275024,1.29687396 66.8456527,3.31671235 C68.8638031,5.33655074 69.9963883,8.07571153 69.994,10.931 L69.994,59.234 C69.994,65.176 65.176,69.994 59.234,69.994 L10.931,69.994 C8.07519189,69.9969195 5.33536533,68.8644316 3.31506537,66.8460073 C1.29476541,64.8275831 0.159733098,62.0888096 0.16,59.233 L0.16,10.931 C0.157076763,8.07328471 1.29107388,5.33178828 3.31187859,3.31117117 C5.3326833,1.29055405 8.074285,0.15681146 10.932,0.16 L10.93,0.162 Z"/>
    <path fill="#FFF" d="M50.898,35.666 C50.898,35.666 56.932,27.156 57.531,24.359 C57.731,23.359 57.291,22.8 56.252,22.8 L51.018,22.8 C49.819,22.8 49.378,23.32 49.02,24.08 C49.02,24.08 46.19,30.108 42.747,33.91 C41.642,35.138 41.08,35.508 40.469,35.508 C39.977,35.508 39.75,35.098 39.75,33.994 L39.75,24.274 C39.75,22.917 39.59,22.516 38.471,22.516 L30.08,22.516 C29.44,22.516 29.042,22.888 29.042,23.394 C29.042,24.674 31,24.963 31,28.429 L31,35.581 C31,37.019 30.921,37.578 30.241,37.578 C28.443,37.578 24.169,31.384 21.771,24.352 C21.291,22.913 20.771,22.514 19.415,22.514 L14.177,22.514 C13.417,22.514 12.857,23.034 12.857,23.794 C12.857,25.192 14.497,31.664 20.934,40.336 C25.249,46.17 30.923,49.326 36.038,49.326 C39.155,49.326 39.908,48.806 39.908,47.489 L39.908,43.013 C39.908,41.894 40.348,41.414 40.987,41.414 C41.706,41.414 42.976,41.645 45.941,44.571 C49.458,47.928 49.697,49.326 51.615,49.326 L57.491,49.326 C58.09,49.326 58.651,49.047 58.651,48.048 C58.651,46.728 56.932,44.371 54.295,41.574 C53.217,40.136 51.458,38.577 50.9,37.859 C50.099,37.021 50.338,36.541 50.898,35.666 L50.898,35.666 Z"/>
  </g>
</svg>
