<svg xmlns="http://www.w3.org/2000/svg" width="24" height="14" viewBox="0 0 24 14">
  <path d="M129.93676,34.8673728 C129.93676,34.8673728 133.099096,30.4238401 133.413024,28.9633746 C133.517841,28.4412203 133.287243,28.1493361 132.742717,28.1493361 L129.999651,28.1493361 C129.371271,28.1493361 129.140149,28.4208563 128.952527,28.8176936 C128.952527,28.8176936 127.469363,31.9652394 125.664934,33.9504699 C125.085819,34.5916754 124.791283,34.7848724 124.471066,34.7848724 C124.213216,34.7848724 124.094248,34.5707892 124.094248,33.9943309 L124.094248,28.9189915 C124.094248,28.2104282 124.010394,28.0010443 123.423942,28.0010443 L119.026335,28.0010443 C118.69092,28.0010443 118.482334,28.1952857 118.482334,28.4594957 C118.482334,29.1278532 119.508495,29.2787558 119.508495,31.0885424 L119.508495,34.8229897 C119.508495,35.5738475 119.467092,35.8657318 119.110713,35.8657318 C118.168406,35.8657318 115.928462,32.6315083 114.671704,28.9597195 C114.420142,28.2083395 114.147618,28 113.436957,28 L110.691794,28 C110.293488,28 110,28.2715202 110,28.6683575 C110,29.3983291 110.859501,32.7777115 114.233044,37.3058332 C116.494475,40.3520812 119.46814,42 122.14884,42 C123.782417,42 124.177054,41.7284798 124.177054,41.0408026 L124.177054,38.7036402 C124.177054,38.1193495 124.407652,37.8687155 124.742543,37.8687155 C125.119361,37.8687155 125.78495,37.9893331 127.338865,39.5171565 C129.182076,41.2700283 129.307333,42 130.31253,42 L133.39206,42 C133.705988,42 134,41.854319 134,41.3326869 C134,40.6434432 133.099096,39.4127256 131.717081,37.9522602 C131.152116,37.2014024 130.230249,36.3873639 129.937808,36.0124571 C129.518015,35.5748918 129.643272,35.3242578 129.93676,34.8673728 L129.93676,34.8673728 Z" transform="translate(-110 -28)"/>
</svg>
