<svg xmlns="http://www.w3.org/2000/svg" width="24" height="13" viewBox="0 0 24 13">
    <path fill="#000" fill-rule="evenodd" d="M23.53 11.687a1.532 1.532 0 0 0-.08-.148c-.41-.708-1.194-1.578-2.352-2.61l-.024-.023-.013-.012-.012-.012h-.012c-.526-.48-.859-.803-.998-.968-.255-.315-.312-.634-.173-.957.099-.244.469-.76 1.109-1.547.337-.417.603-.752.8-1.004 1.421-1.81 2.037-2.968 1.848-3.472L23.55.817c-.05-.071-.177-.136-.382-.195-.206-.06-.468-.069-.789-.03l-3.547.024a.48.48 0 0 0-.246.006l-.16.035-.062.03-.049.035a.539.539 0 0 0-.136.124.803.803 0 0 0-.122.207 18.942 18.942 0 0 1-1.318 2.657c-.304.488-.583.911-.838 1.27a6.152 6.152 0 0 1-.64.79c-.173.17-.329.306-.469.408-.14.103-.246.146-.32.13a9.353 9.353 0 0 1-.21-.047.799.799 0 0 1-.276-.29 1.257 1.257 0 0 1-.142-.46 4.873 4.873 0 0 1-.043-.478 9.58 9.58 0 0 1 .006-.567c.009-.245.013-.41.013-.496 0-.3.006-.624.018-.975l.03-.832c.01-.205.013-.421.013-.65a2.62 2.62 0 0 0-.043-.537 1.785 1.785 0 0 0-.13-.378.645.645 0 0 0-.252-.283 1.458 1.458 0 0 0-.412-.16c-.435-.094-.99-.145-1.663-.153C9.854-.014 8.872.08 8.437.285A1.65 1.65 0 0 0 7.97.64c-.148.174-.168.268-.062.284.493.07.842.24 1.047.507l.074.142c.058.103.115.284.173.544.057.26.094.547.11.861a8.815 8.815 0 0 1 0 1.477c-.04.41-.08.728-.116.956a1.856 1.856 0 0 1-.167.555 2.315 2.315 0 0 1-.148.26.208.208 0 0 1-.061.059.958.958 0 0 1-.333.06c-.115 0-.254-.056-.418-.166a2.912 2.912 0 0 1-.512-.455 6.088 6.088 0 0 1-.597-.809 13.939 13.939 0 0 1-.69-1.228l-.197-.343c-.123-.22-.291-.54-.505-.962a18.18 18.18 0 0 1-.566-1.222.783.783 0 0 0-.296-.378L4.644.745a.855.855 0 0 0-.197-.1 1.35 1.35 0 0 0-.284-.077L.788.592C.444.592.21.667.086.816L.037.887A.369.369 0 0 0 0 1.076c0 .087.025.193.074.319A38.294 38.294 0 0 0 1.68 4.607 35.77 35.77 0 0 0 3.19 7.099c.427.63.862 1.224 1.306 1.783.443.559.737.917.88 1.074.144.158.257.276.339.355l.308.283c.197.19.486.415.868.68.382.263.805.523 1.269.779a7.054 7.054 0 0 0 1.62.625 5.83 5.83 0 0 0 1.798.196h1.416c.288-.024.505-.11.653-.26l.05-.06a.765.765 0 0 0 .091-.218c.03-.098.044-.207.044-.324a3.736 3.736 0 0 1 .08-.916c.06-.271.13-.476.21-.614.077-.137.166-.254.264-.348.098-.094.168-.152.21-.171a.822.822 0 0 1 .098-.042c.197-.062.429-.001.696.184.267.185.517.413.751.685.234.271.515.576.844.915.328.338.616.59.862.756l.246.141c.165.095.378.182.641.26.262.079.492.099.69.06l3.153-.048c.311 0 .554-.05.726-.148.173-.098.275-.206.308-.324a.878.878 0 0 0 .006-.402 1.435 1.435 0 0 0-.086-.313z"/>
</svg>
