<svg xmlns="http://www.w3.org/2000/svg" width="24" height="14" viewBox="0 0 24 14">
  <path fill-rule="evenodd" d="M19.9371468,6.86437838 C19.9371468,6.86437838 23.0994466,2.42027703 23.4136834,0.959763514 C23.5183702,0.438189201 23.2880063,0.145945912 22.7434056,0.145945912 L20.0000294,0.145945912 C19.3717322,0.145945912 19.1413683,0.417189157 18.9528968,0.81364187 C18.9528968,0.81364187 17.4696427,3.96233047 15.6649199,5.94643922 C15.0855707,6.58786315 14.7910012,6.7809054 14.4712082,6.7809054 C14.2132395,6.7809054 14.0942652,6.56668738 14.0942652,5.98808784 L14.0942652,0.918027025 C14.0942652,0.208682445 14.0104804,0 13.4241638,0 L9.02625989,0 C8.69112102,0 8.48165923,0.19409664 8.48165923,0.458925646 C8.48165923,1.12697307 9.50788973,1.27783949 9.50788973,3.08788512 L9.50788973,6.82264189 C9.50788973,7.57381082 9.46599737,7.86587838 9.10995642,7.86587838 C8.16759883,7.86587838 5.92675452,4.63195948 4.67024834,0.959763514 C4.41889419,0.208682445 4.14663795,0 3.43455605,0 L0.691179821,0 C0.293246511,0 0,0.271155379 0,0.667520225 C0,1.39777698 0.858661061,4.77790539 4.23042267,9.30556758 C6.49216907,12.3517162 9.46599737,14 12.1465792,14 C13.7801166,14 14.1780499,13.7288446 14.1780499,13.0402365 L14.1780499,10.7034324 C14.1780499,10.1192095 14.4084137,9.86887839 14.7434644,9.86887839 C15.1204075,9.86887839 15.7857463,9.98951881 17.3403497,11.5171622 C19.1832607,13.2698311 19.3089378,14 20.3142662,14 L23.3926931,14 C23.7068417,14 24,13.8539662 24,13.3323919 C24,12.6437838 23.0994466,11.4128649 21.7172633,9.9522635 C21.1518488,9.20118243 20.2303933,8.38754056 19.9371468,8.01200003 C19.5183996,7.57381082 19.6439884,7.32330402 19.9371468,6.86437838"/>
</svg>
